<?xml version="1.0" encoding="UTF-8"?><svg version="1.1" width="43px" height="24px" viewBox="0 0 43.0 24.0" xmlns="http://www.w3.org/2000/svg" xmlns:xlink="http://www.w3.org/1999/xlink"><defs><clipPath id="i0"><path d="M1440,0 L1440,11696 L0,11696 L0,0 L1440,0 Z"></path></clipPath><clipPath id="i1"><path d="M1.60468503,0 C1.81747316,1.86242576 1.55131809,3.67150102 1.28549851,5.42757162 C0.91294418,7.8219461 0.593757659,10.1099654 1.28549851,12.5577769 L0.434327823,12.8239674 C-0.310780831,10.1633592 0.0617734957,7.66262954 0.380960881,5.32117324 C0.647116819,3.56510263 0.859913597,1.862469 0.700147402,0.106398389 L1.60468503,0 Z"></path></clipPath><clipPath id="i2"><path d="M0.922656504,0.0219579233 L1.56102955,0.341144444 C1.61439649,0.394511386 1.66742793,0.447542833 1.61439649,0.500910639 C1.61439649,0.554277581 1.40160836,0.82009716 1.13544377,1.24601929 C1.02904538,1.40578549 0.922655639,1.56520581 0.869287833,1.6716042 C0.922487028,1.69828767 1.00228366,1.73822922 1.08208029,1.77812765 L1.29487274,1.88439233 C1.45463894,1.99079072 1.45463894,1.99079072 1.50766087,2.04415853 L1.50766087,2.15055692 C1.45429393,2.25695531 1.08207596,3.10844506 0.869287833,3.64039377 C0.815920891,3.80015996 0.762889444,3.95958029 0.709521637,4.06597868 L0.762888579,4.06597868 C1.02904452,4.17237707 1.13544291,4.22574487 1.13544291,4.27876681 L1.13544291,4.3851652 C1.08874683,4.52496062 1.16462795,5.39791406 1.25560705,6.29118731 L1.2952091,6.67318452 C1.2952091,6.67318452 1.34857604,6.67318452 1.34857604,6.72655146 C1.40194299,6.7799184 1.40194299,6.83294985 1.34857604,6.88631766 L0.444038418,8.00365206 C0.710194355,8.16341826 1.24217765,8.37620639 1.24217765,8.37620639 L1.02866579,8.80210085 C-0.0356639726,8.2701262 -0.0356639726,8.2701262 0.0177730079,8.16372781 C0.0177730079,8.16372781 0.0177730079,8.11036087 0.0711399496,8.11036087 L0.975677575,6.93967595 L0.975677575,6.88630901 C0.922310634,6.14120036 0.762889444,4.91744162 0.81591138,4.49193453 C0.762544438,4.43856759 0.656145184,4.43856759 0.603123248,4.38553615 C0.443357053,4.3321692 0.390335117,4.27913776 0.390335117,4.22576995 L0.390335117,4.11937156 C0.390335117,4.11937156 0.496733506,3.85321562 0.603123248,3.58739691 C0.869279186,3.00205445 1.08207596,2.41671199 1.18846571,2.20391521 C0.648149591,1.95823281 0.606586813,1.93933416 0.603389676,1.85419521 L0.603123248,1.7249625 C0.603123248,1.67159556 0.709521637,1.5651963 0.975677575,1.13962004 C1.08207596,0.926831908 1.24183351,0.660667323 1.3482319,0.501246998 L0.81625725,0.23509106 C0.762890309,0.181724119 0.709858861,0.128692671 0.762890309,0.075324865 C0.81625725,0.0219579233 0.869288698,-0.0310735241 0.922656504,0.0219579233 Z"></path></clipPath><clipPath id="i3"><path d=""></path></clipPath><clipPath id="i4"><path d="M0.531974652,0 C3.35228855,1.91543041 9.31189536,6.27901814 11.3871179,9.04624093 L10.6424329,9.5777746 C8.62056091,6.91716637 2.76713633,2.66036613 0,0.745108654 L0.531974652,0 Z"></path></clipPath><clipPath id="i5"><path d="M0.159766195,0.0219579233 L0.213133137,0.0219579233 C0.266500079,0.075324865 0.479289075,0.128356312 0.585687464,0.181724119 C0.74545366,0.23509106 0.74545366,0.23509106 0.74545366,0.288122508 L0.74545366,0.394520897 C0.479297722,0.926495549 4.15080738,3.64042836 7.71621265,5.87509716 C7.76957959,5.87509716 7.76957959,5.92846411 7.76957959,5.92846411 C7.82294653,5.92846411 7.92934578,5.98183105 7.98236772,5.98183105 C8.19515585,6.03519799 8.30155424,6.08822944 8.35492205,6.19461918 L8.35492205,6.35438537 C8.30155511,6.40808954 8.24852366,6.46112099 8.19515585,6.46112099 L8.14184079,6.46112099 C8.08847385,6.46112099 8.08847385,6.40775318 8.08847385,6.40775318 C8.03510691,6.40775318 7.98207546,6.35438624 7.92870765,6.35438624 C7.71591952,6.3010193 7.55615333,6.24798785 7.55615333,6.14159811 C5.80008272,5.0242637 0.532389697,1.61856411 0.478952716,0.447879192 C0.0533678064,0.23509106 0.0533678064,0.23509106 0,0.181723254 L0,0.075324865 C0.0533669417,0.0219579233 0.106398389,-0.0310735241 0.159766195,0.0219579233 Z"></path></clipPath><clipPath id="i6"><path d="M0.0459875738,3.34826465 C7.92145712,1.06026175 16.4884946,-1.44091664 24.6295926,1.00689481 C32.2920925,3.24208243 35.8571518,8.66974052 37.8790239,16.0660931 C38.0387901,16.5980418 37.7192577,17.236752 37.8790239,17.7687267 C35.9101565,10.3722877 32.2920925,4.89179788 24.6295926,2.6567832 C16.4350576,0.315326901 7.97428883,2.70978784 0.0459875738,5.05115768 C0.205753769,4.99754776 -0.113441398,3.4012935 0.0459875738,3.34826465 Z"></path></clipPath></defs><g transform="translate(-1223.0 -182.0)"><g clip-path="url(#i0)"><g transform="translate(1223.580372572846 178.0)"><g transform="translate(41.99999999999963 4.000000000000128) scale(-1.0 1.0)"><g transform="translate(40.31801459884264 10.531517776166712)"><g clip-path="url(#i1)"><polygon points="-5.55111512e-17,0 1.6819854,0 1.6819854,12.8239674 -5.55111512e-17,12.8239674 -5.55111512e-17,0" stroke="none" fill="#4EC0F2"></polygon></g></g><g transform="translate(40.25631708516084 14.287928776839859)"><g clip-path="url(#i2)"><polygon points="-2.22044605e-15,1.09634524e-15 1.63635441,1.09634524e-15 1.63635441,8.80210085 -2.22044605e-15,8.80210085 -2.22044605e-15,1.09634524e-15" stroke="none" fill="#4EC0F2"></polygon></g></g><g transform="translate(41.37035185432615 11.84041822759013)"><g clip-path="url(#i3)"><polygon points="-4.46864767e-15,1.09634524e-15 0.256034002,1.09634524e-15 0.256034002,0.288122508 -4.46864767e-15,0.288122508 -4.46864767e-15,1.09634524e-15" stroke="none" fill="#4EC0F2"></polygon></g></g><g transform="translate(30.26987455356084 14.31035103118117)"><g clip-path="url(#i4)"><polygon points="0,0 11.3871179,0 11.3871179,9.5777746 0,9.5777746 0,0" stroke="none" fill="#4EC0F2"></polygon></g></g><g transform="translate(30.58826730150031 14.925497669228779)"><g clip-path="url(#i5)"><polygon points="0,1.09634524e-15 8.35492205,1.09634524e-15 8.35492205,6.46112099 0,6.46112099 0,1.09634524e-15" stroke="none" fill="#4EC0F2"></polygon></g></g><g clip-path="url(#i6)"><polygon points="-4.30211422e-16,4.4408921e-16 37.9251444,4.4408921e-16 37.9251444,17.7687267 -4.30211422e-16,17.7687267 -4.30211422e-16,4.4408921e-16" stroke="none" fill="#4EC0F2"></polygon></g></g></g></g></g></svg>